<?xml version="1.0" encoding="utf-8"?>
<!-- Generator: Adobe Illustrator 16.0.0, SVG Export Plug-In . SVG Version: 6.00 Build 0)  -->
<!DOCTYPE svg PUBLIC "-//W3C//DTD SVG 1.1//EN" "http://www.w3.org/Graphics/SVG/1.1/DTD/svg11.dtd">
<svg version="1.1" id="Layer_1" xmlns="http://www.w3.org/2000/svg" xmlns:xlink="http://www.w3.org/1999/xlink" x="0px" y="0px"
	 width="312.947px" height="159.205px" viewBox="0 0 312.947 159.205" enable-background="new 0 0 312.947 159.205"
	 xml:space="preserve">
<g>
	<path fill="#00CFB5" d="M295.785,57.278c0.095,0.321,0.665,2.267,0.758,2.588c5.759-1.236,10.66-2.302,14.003-3.037
		c-0.091-0.32-0.643-2.275-0.733-2.595C306.449,54.975,301.54,56.043,295.785,57.278z"/>
	<path fill="#00CFB5" d="M238.033,70.063v-1.25c-3.912,0.693-8.683,1.538-14.156,2.485v1.254V74c5.521-0.955,10.3-1.8,14.156-2.483
		V70.063z"/>
	<path fill="#00CFB5" d="M219.352,72.106c-4.549,0.778-9.497,1.61-14.774,2.473v1.17v1.392c5.288-0.863,10.237-1.693,14.774-2.468
		v-1.352V72.106z"/>
	<path fill="#00CFB5" d="M184.704,77.86l-0.007,0.943c-0.005,0-0.009,0.001-0.014,0.002l-0.004,1.457
		c5.061-0.767,9.944-1.53,14.605-2.277l0.011-2.404C194.636,76.33,189.756,77.094,184.704,77.86z"/>
	<path fill="#00CFB5" d="M127.563,86.568v-0.654v-0.616c-4.854,0.515-9.72,0.994-14.567,1.429v0.508v0.667v1.358
		c4.846-0.436,9.711-0.916,14.567-1.431V86.568z"/>
	<path fill="#00CFB5" d="M107.572,88.337c0.002,0,0.005,0,0.007,0l0.009-1.243c-4.971,0.414-9.91,0.776-14.791,1.08v0.487
		c-0.002,0-0.005,0-0.007,0l-0.01,2.093c4.876-0.303,9.815-0.666,14.79-1.08L107.572,88.337z"/>
	<path fill="#00A9A2" d="M219.352,72.571v-1.992c-4.532,0.774-9.481,1.606-14.774,2.471v1.994
		C209.854,74.181,214.803,73.349,219.352,72.571z"/>
	<path fill="#00A9A2" d="M238.033,69.308v-1.979l-0.247,0.044c-3.793,0.671-8.486,1.502-13.909,2.44v1.979
		C229.351,70.845,234.121,70,238.033,69.308z"/>
	<path fill="#00A9A2" d="M295.91,57.695c5.755-1.235,10.664-2.303,14.027-3.043c-0.093-0.324-0.503-1.709-0.6-2.03
		c-3.369,0.74-8.284,1.81-14.048,3.046C295.391,55.99,295.814,57.369,295.91,57.695z"/>
	<path fill="#00A9A2" d="M127.563,85.646v-1.879c-4.856,0.516-9.722,0.997-14.567,1.434v1.875
		C117.844,86.64,122.709,86.161,127.563,85.646z"/>
	<path fill="#00A9A2" d="M199.296,75.9l0.011-2.04c-4.654,0.747-9.534,1.511-14.592,2.278l-0.011,2.041
		C189.756,77.412,194.636,76.648,199.296,75.9z"/>
	<path fill="#00A9A2" d="M107.588,87.542l0.011-1.838c-4.975,0.416-9.915,0.779-14.791,1.084l-0.011,1.834
		C97.678,88.319,102.617,87.956,107.588,87.542z"/>
	<path fill="#00CFB5" d="M85.867,89.027v-0.327c-0.943,0.048-1.883,0.093-2.82,0.136c-37.628,1.72-62.754,0.572-83.046-3.195V88
		c14.604,2.679,31.391,3.968,52.222,3.968c9.409,0,19.646-0.262,30.87-0.775c0.922-0.042,1.847-0.087,2.774-0.134v-1.364V89.027z"/>
	<path fill="#00A9A2" d="M0.001,85.047v0.909c20.292,3.768,45.418,4.915,83.046,3.195c0.938-0.043,1.877-0.088,2.82-0.136v-1.874
		c-0.959,0.049-1.914,0.095-2.866,0.139C46.88,88.933,21.113,87.973,0,84.056L0.001,85.047L0.001,85.047z"/>
</g>
</svg>
