<svg enable-background="new 0 0 18.896 18.897" height="18.897" viewBox="0 0 18.896 18.897" width="18.896" xmlns="http://www.w3.org/2000/svg"><g fill="#fff"><path d="m6.934 14.004h-2.414v-6.237h2.414zm-1.186-6.869c-.702 0-1.271-.502-1.271-1.121s.569-1.121 1.271-1.121c.703 0 1.272.501 1.272 1.121s-.569 1.121-1.272 1.121zm8.672 6.869h-2.428s0-3.047 0-3.492-.316-1.006-.905-1.006-.862.69-.862.934 0 3.564 0 3.564h-2.4s0-4.512 0-4.8-.072-1.437-.072-1.437l2.084-.014s.086.502.129.862c.503-1.049 2.256-1.336 3.319-.675s1.135 1.868 1.135 2.299 0 3.765 0 3.765z"/><path d="m9.449.75c4.796 0 8.698 3.902 8.698 8.698s-3.901 8.699-8.698 8.699-8.699-3.902-8.699-8.699 3.902-8.698 8.699-8.698m0-.75c-5.219 0-9.449 4.23-9.449 9.448s4.23 9.449 9.449 9.449c5.217 0 9.448-4.23 9.448-9.449s-4.231-9.448-9.448-9.448z"/></g></svg>