<?xml version="1.0" encoding="utf-8"?>
<!-- Generator: Adobe Illustrator 16.0.0, SVG Export Plug-In . SVG Version: 6.00 Build 0)  -->
<!DOCTYPE svg PUBLIC "-//W3C//DTD SVG 1.1//EN" "http://www.w3.org/Graphics/SVG/1.1/DTD/svg11.dtd">
<svg version="1.1" id="Layer_1" xmlns="http://www.w3.org/2000/svg" xmlns:xlink="http://www.w3.org/1999/xlink" x="0px" y="0px"
	 width="60px" height="21.15px" viewBox="0 0 60 21.15" enable-background="new 0 0 60 21.15" xml:space="preserve">
<g>
	<path fill="#FFFFFF" d="M4.786,12.118c2.47,0,4.4,2.008,4.4,4.479c0,2.47-1.93,4.554-4.479,4.554C2.008,21.15,0,18.988,0,15.283
		C0,7.951,3.476,3.086,8.878,0.154C9.186,0,9.494-0.079,9.727,0.308l1.081,1.622c0.232,0.387,0.154,0.619-0.232,0.849
		C6.483,5.402,4.554,8.8,4.17,12.118H4.786z M19.84,12.118c2.47,0,4.399,2.008,4.399,4.479c0,2.47-1.93,4.554-4.478,4.554
		c-2.703,0-4.708-2.162-4.708-5.868c0-7.332,3.473-12.197,8.878-15.128C24.239,0,24.547-0.079,24.78,0.308l1.081,1.622
		c0.229,0.387,0.154,0.619-0.233,0.849c-4.092,2.624-6.021,6.021-6.408,9.34H19.84z"/>
	<path fill="#FFFFFF" d="M40.16,9.032c-2.47-0.079-4.399-2.008-4.399-4.479S37.615,0,40.239,0s4.708,2.162,4.708,5.789
		c0,7.335-3.551,12.196-8.878,15.129c-0.383,0.232-0.694,0.232-0.924-0.076l-1.006-1.7c-0.229-0.308-0.229-0.541,0.233-0.849
		c4.013-2.545,5.943-5.943,6.329-9.261H40.16z M55.214,9.032c-2.47-0.079-4.4-2.008-4.4-4.479S52.665,0,55.292,0
		C57.917,0,60,2.162,60,5.789c0,7.335-3.551,12.196-8.878,15.129c-0.387,0.232-0.695,0.232-0.927-0.076l-1.002-1.7
		c-0.232-0.308-0.232-0.541,0.232-0.849c4.013-2.545,5.943-5.943,6.329-9.261H55.214z"/>
</g>
</svg>
