<?xml version="1.0" encoding="utf-8"?>
<!-- Generator: Adobe Illustrator 16.0.0, SVG Export Plug-In . SVG Version: 6.00 Build 0)  -->
<!DOCTYPE svg PUBLIC "-//W3C//DTD SVG 1.1//EN" "http://www.w3.org/Graphics/SVG/1.1/DTD/svg11.dtd">
<svg version="1.1" id="Layer_1" xmlns="http://www.w3.org/2000/svg" xmlns:xlink="http://www.w3.org/1999/xlink" x="0px" y="0px"
	 width="20px" height="20px" viewBox="0 0 20 20" enable-background="new 0 0 20 20" xml:space="preserve">
<g>
	<g>
		<path fill="#FFFFFF" d="M10,20C4.486,20,0,15.514,0,10S4.486,0,10,0s10,4.486,10,10S15.514,20,10,20z M10,0.915
			C4.991,0.915,0.915,4.99,0.915,10S4.991,19.085,10,19.085S19.085,15.01,19.085,10S15.009,0.915,10,0.915z"/>
	</g>
</g>
<g>
	<path fill="#FFFFFF" d="M14.046,8.447c0.303,4.469-4.746,7.257-8.427,4.992c1.033,0.008,2.177-0.275,2.791-0.858
		c-0.893-0.145-1.525-0.55-1.771-1.342c0.261-0.024,0.629,0.056,0.805-0.054c-0.817-0.311-1.463-0.792-1.503-1.879
		c0.291,0.031,0.442,0.202,0.805,0.161c-0.528-0.339-1.132-1.627-0.59-2.576c0.958,1.062,2.155,1.888,4.025,2.039
		c-0.464-1.973,2.151-3.195,3.328-1.771c0.457-0.098,0.843-0.267,1.234-0.43c-0.16,0.447-0.486,0.73-0.805,1.02
		c0.347-0.064,0.713-0.109,0.966-0.269C14.86,7.831,14.353,8.182,14.046,8.447z"/>
</g>
</svg>
