<svg enable-background="new 0 0 18.896 18.897" height="18.897" viewBox="0 0 18.896 18.897" width="18.896" xmlns="http://www.w3.org/2000/svg"><g fill="#43bead"><path d="m11.435 9.448h-1.276v4.629h-1.912v-4.629h-.955v-1.595h.956v-.958c0-1.301.54-2.075 2.072-2.075h1.276v1.595h-.798c-.597 0-.636.223-.636.639l-.002.798h1.445z"/><path d="m9.448.75c4.796 0 8.698 3.902 8.698 8.698s-3.902 8.699-8.698 8.699-8.698-3.902-8.698-8.699 3.902-8.698 8.698-8.698m0-.75c-5.218 0-9.448 4.23-9.448 9.448s4.23 9.449 9.448 9.449 9.448-4.23 9.448-9.449-4.229-9.448-9.448-9.448z"/></g></svg>