<?xml version="1.0" encoding="utf-8"?>
<!-- Generator: Adobe Illustrator 16.0.0, SVG Export Plug-In . SVG Version: 6.00 Build 0)  -->
<!DOCTYPE svg PUBLIC "-//W3C//DTD SVG 1.1//EN" "http://www.w3.org/Graphics/SVG/1.1/DTD/svg11.dtd">
<svg version="1.1" id="Layer_1" xmlns="http://www.w3.org/2000/svg" xmlns:xlink="http://www.w3.org/1999/xlink" x="0px" y="0px"
	 width="20px" height="20px" viewBox="0 0 20 20" enable-background="new 0 0 20 20" xml:space="preserve">
<g>
	<g>
		<path fill="#17A8A2" d="M10,20C4.486,20,0,15.514,0,10S4.486,0,10,0s10,4.486,10,10S15.514,20,10,20z M10,0.915
			C4.991,0.915,0.915,4.99,0.915,10S4.991,19.085,10,19.085S19.085,15.01,19.085,10S15.009,0.915,10,0.915z"/>
	</g>
</g>
<g>
	<g>
		<path fill="#17A8A2" d="M11.823,6.211c0.601,0,1.101,0.188,1.446,0.541c0.34,0.349,0.52,0.842,0.52,1.426v3.645
			c0,0.585-0.186,1.079-0.538,1.431c-0.352,0.351-0.846,0.536-1.429,0.536H8.177c-0.6,0-1.1-0.188-1.446-0.543
			c-0.34-0.35-0.52-0.842-0.52-1.424V8.178c0-1.195,0.804-1.967,2.048-1.967H11.823 M11.823,5.392H8.259
			c-1.687,0-2.868,1.134-2.868,2.786v3.645c0,1.605,1.079,2.786,2.786,2.786h3.646c1.639,0,2.786-1.14,2.786-2.786V8.178
			C14.608,6.566,13.53,5.392,11.823,5.392L11.823,5.392z"/>
	</g>
	<g>
		<g>
			<path fill="#17A8A2" d="M10.01,8.443c0.853,0,1.546,0.693,1.546,1.547c0,0.853-0.694,1.546-1.546,1.546S8.464,10.843,8.464,9.99
				C8.464,9.137,9.158,8.443,10.01,8.443 M10.01,7.624c-1.307,0-2.366,1.06-2.366,2.366s1.059,2.365,2.366,2.365
				s2.366-1.059,2.366-2.365S11.317,7.624,10.01,7.624L10.01,7.624z"/>
		</g>
	</g>
	<g>
		<circle fill="#17A8A2" cx="12.448" cy="7.553" r="0.563"/>
	</g>
</g>
</svg>
