<?xml version="1.0" encoding="utf-8"?>
<!-- Generator: Adobe Illustrator 16.0.0, SVG Export Plug-In . SVG Version: 6.00 Build 0)  -->
<!DOCTYPE svg PUBLIC "-//W3C//DTD SVG 1.1//EN" "http://www.w3.org/Graphics/SVG/1.1/DTD/svg11.dtd">
<svg version="1.1" id="Layer_1" xmlns="http://www.w3.org/2000/svg" xmlns:xlink="http://www.w3.org/1999/xlink" x="0px" y="0px"
	 width="492px" height="250.293px" viewBox="0 0 492 250.293" enable-background="new 0 0 492 250.293" xml:space="preserve">
<path fill="#00A9A2" d="M321.626,0.121v118.202c7.819-1.254,15.569-2.528,23.228-3.822V0.121H321.626z"/>
<path fill="#00CFB5" d="M321.626,250.293h23.228V118.178c-7.658,1.289-15.408,2.562-23.228,3.817V250.293z"/>
<path fill="#00CFB5" d="M465.53,95.273c2.582,9.808,3.896,18.555,3.896,29.935c0,29.682-8.643,53.828-25.918,72.457
	c-17.279,18.614-40.364,28.54-69.285,29.715V113.056c-7.318,1.312-14.746,2.618-22.256,3.912v133.324h5.2
	c40.604,0,73.234-11.506,97.877-34.524C479.673,192.76,492,162.579,492,125.208c0-13.056-1.506-23.349-4.451-34.615
	C480.587,92.1,473.229,93.668,465.53,95.273"/>
<path fill="#00A9A2" d="M374.224,23.184c28.274,0.436,51.202,10.133,68.804,29.083c10.852,11.682,18.334,23.575,22.503,39.34
	c7.699-1.614,15.057-3.18,22.019-4.689c-5.576-21.349-16.421-37.681-32.588-52.598c-24.694-22.797-57.93-34.199-99.742-34.199
	h-3.251v113.165c0,0,14.938-2.592,22.256-3.902V23.184z"/>
<path fill="#00CFB5" d="M0.001,135.567v113.266h22.25v-98.931h112.745v-7.032C83.306,145.318,36.116,143.704,0.001,135.567"/>
<path fill="#00CFB5" d="M177.647,168.553c0,13.428,1.053,23.74,3.165,30.948c2.111,7.202,5.603,13.884,10.478,20.064
	c0.998,1.269,2.042,2.467,3.095,3.65h45.205c-11.236-1.098-20.299-5.888-27.183-14.381c-7.904-9.741-11.857-23.278-11.857-40.608
	v-30.251c-7.675,0.751-15.318,1.449-22.903,2.076v23.625V168.553z"/>
<path fill="#00A9A2" d="M200.55,0.121h-22.903v136.26c7.584-0.632,15.228-1.324,22.903-2.097V0.121z"/>
<path fill="#00A9A2" d="M291.664,0l-1.303,123.117c7.694-1.122,15.344-2.286,22.938-3.48l1.272-119.395L291.664,0z"/>
<path fill="#00CFB5" d="M289.844,173.293c-0.18,17.114-4.298,30.306-12.349,39.596c-8.064,9.29-19.231,13.849-33.532,13.698
	c-1.766-0.02-75.751-0.467-75.751-0.467l0.918-85.387c-7.825,0.602-15.58,1.124-23.249,1.56l-1.133,105.999l101.62,1.062v-0.034
	c19.441-0.126,35.246-6.852,47.365-20.18c12.435-13.679,18.784-32.212,19.025-55.607l0.541-50.214
	c-7.593,1.184-15.243,2.347-22.948,3.48L289.844,173.293z"/>
<path fill="#00A9A2" d="M23.922,106.148c1.669-11.571,4.916-22.187,9.757-31.831C47.155,46.239,76.47,18.358,140.032,21.318V0.122
	h-3.25c-0.437,0-0.847,0.02-1.284,0.02v-0.02h-2.954c-29.449,0-54.223,6.235-74.342,18.659c-7.634,4.404-14.701,9.57-21.163,15.54
	C13.675,55.888,1.38,84.184,0.121,119.18C0.042,121.172,0,123.183,0,125.209v6.682c36.116,8.14,83.307,9.757,134.996,7.307v-10.573
	H22.397C22.397,128.625,21.815,119.29,23.922,106.148"/>
<path fill="#01A99D" d="M23.922,106.148c-2.107,13.142-1.525,22.477-1.525,22.477c0.117-1.184,0.186-2.317,0.186-3.416
	C22.583,118.583,23.045,112.233,23.922,106.148"/>
<path fill="#00A9A2" d="M147.355,0.121l-1.475,138.497c7.668-0.432,15.424-0.963,23.249-1.555l1.46-136.942H147.355z"/>
</svg>
