<?xml version="1.0" encoding="utf-8"?>
<!-- Generator: Adobe Illustrator 16.0.0, SVG Export Plug-In . SVG Version: 6.00 Build 0)  -->
<!DOCTYPE svg PUBLIC "-//W3C//DTD SVG 1.1//EN" "http://www.w3.org/Graphics/SVG/1.1/DTD/svg11.dtd">
<svg version="1.1" id="Layer_1" xmlns="http://www.w3.org/2000/svg" xmlns:xlink="http://www.w3.org/1999/xlink" x="0px" y="0px"
	 width="93px" height="54.938px" viewBox="0 0 93 54.938" enable-background="new 0 0 93 54.938" xml:space="preserve">
<g>
	<path fill="#FFFFFF" d="M60.795,0.022v22.343c1.478-0.237,2.943-0.478,4.391-0.723V0.022H60.795z"/>
	<path fill="#FFFFFF" d="M60.795,47.311h4.391V22.338c-1.447,0.244-2.913,0.484-4.391,0.721V47.311z"/>
	<path fill="#FFFFFF" d="M87.997,18.009c0.488,1.854,0.736,3.507,0.736,5.659c0,5.61-1.633,10.175-4.899,13.696
		c-3.266,3.519-7.63,5.395-13.097,5.617V21.37c-1.383,0.248-2.787,0.495-4.207,0.739v25.202h0.983
		c7.675,0,13.843-2.175,18.501-6.526C90.67,36.436,93,30.731,93,23.667c0-2.468-0.285-4.414-0.841-6.543
		C90.843,17.409,89.452,17.706,87.997,18.009"/>
	<path fill="#FFFFFF" d="M70.737,4.382c5.345,0.082,9.679,1.915,13.005,5.497c2.051,2.208,3.466,4.457,4.254,7.437
		c1.456-0.305,2.846-0.602,4.162-0.887c-1.054-4.035-3.104-7.123-6.16-9.942c-4.667-4.309-10.95-6.464-18.854-6.464h-0.614v21.391
		c0,0,2.823-0.49,4.207-0.738V4.382z"/>
	<path fill="#FFFFFF" d="M0,25.625v21.41h4.206v-18.7h21.312v-1.329C15.747,27.468,6.827,27.163,0,25.625"/>
	<path fill="#FFFFFF" d="M33.58,31.86c0,2.538,0.199,4.487,0.598,5.85c0.399,1.361,1.059,2.625,1.981,3.792
		c0.188,0.24,0.386,0.466,0.585,0.69h8.545c-2.124-0.207-3.837-1.113-5.139-2.718c-1.494-1.841-2.241-4.4-2.241-7.676v-5.718
		c-1.451,0.142-2.896,0.274-4.329,0.393v4.466V31.86z"/>
	<path fill="#FFFFFF" d="M37.909,0.022H33.58v25.756c1.434-0.119,2.878-0.25,4.329-0.396V0.022z"/>
	<path fill="#FFFFFF" d="M55.132,0l-0.247,23.272c1.455-0.212,2.9-0.432,4.336-0.658l0.241-22.568L55.132,0z"/>
	<path fill="#FFFFFF" d="M54.788,32.756c-0.034,3.235-0.812,5.729-2.334,7.485c-1.524,1.756-3.635,2.618-6.338,2.589
		c-0.333-0.004-14.319-0.088-14.319-0.088l0.174-16.14c-1.479,0.114-2.945,0.212-4.395,0.294l-0.214,20.036l19.208,0.201v-0.006
		c3.675-0.024,6.663-1.295,8.953-3.814c2.351-2.585,3.551-6.089,3.597-10.511l0.102-9.492c-1.435,0.224-2.881,0.444-4.338,0.658
		L54.788,32.756z"/>
	<path fill="#FFFFFF" d="M4.522,20.064c0.315-2.187,0.929-4.194,1.844-6.017C8.914,8.74,14.455,3.47,26.469,4.029V0.023h-0.614
		c-0.083,0-0.16,0.003-0.243,0.003V0.023h-0.559c-5.566,0-10.249,1.178-14.052,3.527c-1.443,0.833-2.779,1.809-4,2.938
		c-4.416,4.077-6.74,9.425-6.978,16.041C0.008,22.904,0,23.284,0,23.667v1.263c6.827,1.539,15.747,1.845,25.518,1.381v-1.999H4.233
		C4.233,24.313,4.124,22.548,4.522,20.064"/>
	<path fill="#FFFFFF" d="M4.522,20.064c-0.398,2.484-0.289,4.249-0.289,4.249c0.022-0.224,0.035-0.438,0.035-0.646
		C4.269,22.415,4.356,21.214,4.522,20.064"/>
	<path fill="#FFFFFF" d="M27.854,0.022l-0.278,26.179c1.449-0.082,2.916-0.182,4.395-0.293l0.276-25.886H27.854z"/>
	<path fill="#FFFFFF" d="M27.483,50.607h4.021c0.043,0,0.08,0.015,0.11,0.046c0.03,0.031,0.044,0.067,0.044,0.108
		c0,0.045-0.014,0.081-0.044,0.111c-0.031,0.03-0.067,0.045-0.11,0.045h-3.868v1.7h3.868c0.043,0,0.08,0.014,0.11,0.045
		c0.03,0.03,0.044,0.067,0.044,0.112c0,0.041-0.014,0.077-0.044,0.108c-0.031,0.03-0.067,0.046-0.11,0.046h-3.868v1.701h3.868
		c0.043,0,0.08,0.013,0.11,0.044c0.03,0.03,0.044,0.067,0.044,0.108c0,0.045-0.014,0.083-0.044,0.112
		c-0.031,0.029-0.067,0.043-0.11,0.043h-4.021c-0.044,0-0.081-0.014-0.11-0.043c-0.03-0.029-0.045-0.067-0.045-0.112v-4.021
		c0-0.041,0.015-0.078,0.045-0.108C27.402,50.622,27.438,50.607,27.483,50.607"/>
	<path fill="#FFFFFF" d="M32.317,50.867c-0.026-0.028-0.041-0.061-0.041-0.105c0-0.042,0.016-0.078,0.046-0.109
		c0.029-0.031,0.065-0.046,0.109-0.046c0.044,0,0.081,0.015,0.111,0.046c0.009,0.009,0.017,0.019,0.022,0.029l0.003-0.001
		l1.887,3.756l1.845-3.677c0-0.04,0.015-0.078,0.045-0.106c0.029-0.031,0.064-0.046,0.109-0.046c0.043,0,0.079,0.015,0.109,0.046
		c0.029,0.031,0.044,0.066,0.044,0.109c0,0.019-0.002,0.034-0.005,0.05l0.012,0.006l-2.021,4.025l-0.005-0.001
		c-0.008,0.02-0.019,0.036-0.035,0.05c-0.03,0.032-0.067,0.046-0.11,0.046c-0.044,0-0.081-0.014-0.108-0.046
		c-0.027-0.023-0.042-0.057-0.045-0.096L32.317,50.867z"/>
	<path fill="#FFFFFF" d="M37.38,50.607h4.021c0.044,0,0.081,0.015,0.111,0.046c0.029,0.031,0.044,0.067,0.044,0.108
		c0,0.045-0.015,0.081-0.044,0.111c-0.03,0.03-0.066,0.045-0.111,0.045h-3.867v1.7h3.867c0.044,0,0.081,0.014,0.111,0.045
		c0.029,0.03,0.044,0.067,0.044,0.112c0,0.041-0.015,0.077-0.044,0.108c-0.03,0.03-0.066,0.046-0.111,0.046h-3.867v1.701h3.867
		c0.044,0,0.081,0.013,0.111,0.044c0.029,0.03,0.044,0.067,0.044,0.108c0,0.045-0.015,0.083-0.044,0.112
		c-0.03,0.029-0.066,0.043-0.111,0.043H37.38c-0.042,0-0.079-0.014-0.109-0.043c-0.03-0.029-0.045-0.067-0.045-0.112v-4.021
		c0-0.041,0.015-0.078,0.045-0.108S37.337,50.607,37.38,50.607"/>
	<path fill="#FFFFFF" d="M42.176,50.762c0-0.042,0.014-0.078,0.043-0.109c0.031-0.031,0.067-0.046,0.111-0.046
		c0.042,0,0.079,0.015,0.111,0.046l3.754,3.756v-3.647c0-0.042,0.015-0.078,0.046-0.109c0.029-0.031,0.064-0.046,0.11-0.046
		c0.042,0,0.079,0.015,0.108,0.046c0.032,0.031,0.046,0.067,0.046,0.109v4.021c0,0.045-0.014,0.083-0.046,0.111
		c-0.03,0.031-0.066,0.044-0.108,0.044c-0.045,0-0.081-0.014-0.11-0.046c-0.006-0.005-0.011-0.011-0.019-0.015l-3.739-3.742v3.648
		c0,0.045-0.015,0.083-0.045,0.111c-0.03,0.031-0.067,0.044-0.108,0.044c-0.043,0-0.08-0.014-0.111-0.044
		c-0.029-0.028-0.043-0.066-0.043-0.111V50.762z"/>
	<path fill="#FFFFFF" d="M47.277,50.918c-0.043,0-0.08-0.015-0.108-0.045c-0.031-0.031-0.046-0.066-0.046-0.111
		c0-0.042,0.015-0.078,0.046-0.109c0.028-0.03,0.065-0.046,0.108-0.046h4.022c0.043,0,0.08,0.016,0.11,0.046
		c0.028,0.031,0.044,0.066,0.044,0.109c0,0.044-0.016,0.08-0.044,0.111c-0.031,0.03-0.067,0.045-0.11,0.045h-1.856v3.865
		c0,0.044-0.013,0.082-0.043,0.111c-0.03,0.03-0.066,0.043-0.11,0.043c-0.044,0-0.079-0.014-0.109-0.043
		c-0.031-0.029-0.045-0.067-0.045-0.111v-3.865H47.277z"/>
	<path fill="#FFFFFF" d="M56.25,50.607c0.042,0,0.08,0.015,0.11,0.046c0.029,0.031,0.045,0.067,0.045,0.108
		c0,0.045-0.016,0.081-0.045,0.111c-0.03,0.03-0.068,0.045-0.11,0.045h-3.016c-0.236,0-0.437,0.083-0.603,0.249
		s-0.25,0.366-0.25,0.603c0,0.234,0.083,0.434,0.25,0.6s0.367,0.249,0.603,0.249h2.011c0.318,0,0.591,0.114,0.818,0.341
		s0.342,0.5,0.342,0.82c0,0.319-0.115,0.593-0.342,0.817c-0.227,0.23-0.5,0.341-0.818,0.341h-3.018
		c-0.042,0-0.079-0.014-0.109-0.043c-0.029-0.029-0.043-0.067-0.043-0.112c0-0.041,0.014-0.078,0.043-0.108
		c0.03-0.031,0.066-0.044,0.109-0.044h3.018c0.234,0,0.434-0.083,0.601-0.25c0.166-0.166,0.248-0.367,0.248-0.602
		c0-0.234-0.083-0.434-0.248-0.603c-0.167-0.166-0.366-0.247-0.601-0.247h-2.011c-0.32,0-0.591-0.115-0.82-0.343
		c-0.225-0.227-0.339-0.5-0.339-0.817c0-0.32,0.114-0.594,0.339-0.821c0.229-0.227,0.5-0.341,0.82-0.341H56.25z"/>
	<path fill="#FFFFFF" d="M58.595,52.432c0-0.026,0.008-0.047,0.025-0.064c0.018-0.019,0.041-0.028,0.064-0.028
		c0.029,0,0.048,0.009,0.068,0.028c0.018,0.017,0.025,0.038,0.025,0.064v2.411c0,0.029-0.007,0.051-0.025,0.067
		c-0.02,0.019-0.039,0.026-0.068,0.026c-0.024,0-0.046-0.007-0.064-0.026c-0.017-0.017-0.025-0.038-0.025-0.067V52.432z"/>
	<path fill="#FFFFFF" d="M59.149,52.432c0-0.026,0.01-0.047,0.029-0.064c0.017-0.019,0.038-0.028,0.064-0.028
		c0.027,0,0.049,0.009,0.067,0.027l2.255,2.254v-2.188c0-0.026,0.008-0.047,0.024-0.064c0.02-0.019,0.042-0.028,0.068-0.028
		c0.026,0,0.046,0.009,0.064,0.028c0.018,0.017,0.028,0.038,0.028,0.064v2.411c0,0.029-0.011,0.051-0.028,0.067
		c-0.019,0.019-0.038,0.026-0.064,0.026c-0.026,0-0.048-0.007-0.068-0.026c-0.001-0.002-0.005-0.006-0.01-0.009l-2.242-2.246v2.188
		c0,0.029-0.01,0.051-0.027,0.067c-0.018,0.019-0.04,0.026-0.067,0.026c-0.027,0-0.047-0.007-0.064-0.026
		c-0.019-0.017-0.029-0.038-0.029-0.067V52.432z"/>
	<path fill="#FFFFFF" d="M64.624,54.752c0.029,0,0.049,0.01,0.066,0.026c0.02,0.019,0.028,0.04,0.028,0.064
		c0,0.03-0.008,0.05-0.028,0.067c-0.017,0.019-0.038,0.027-0.066,0.027h-1.206c-0.358,0-0.664-0.126-0.919-0.38
		c-0.252-0.253-0.378-0.561-0.378-0.919c0-0.359,0.126-0.664,0.378-0.917c0.255-0.254,0.561-0.381,0.919-0.381h1.206
		c0.029,0,0.049,0.009,0.066,0.028c0.02,0.017,0.028,0.038,0.028,0.064c0,0.027-0.008,0.048-0.028,0.067
		c-0.017,0.017-0.038,0.027-0.066,0.027h-1.206c-0.308,0-0.57,0.108-0.786,0.324c-0.217,0.217-0.327,0.48-0.327,0.788
		c0,0.309,0.109,0.569,0.327,0.788c0.216,0.217,0.479,0.326,0.786,0.326H64.624z"/>
	<path fill="#FFFFFF" d="M65.247,54.779c0.02,0.019,0.027,0.04,0.027,0.064c0,0.03-0.007,0.05-0.027,0.067
		c-0.016,0.019-0.038,0.027-0.066,0.027c-0.025,0-0.046-0.008-0.066-0.027c-0.016-0.018-0.026-0.038-0.026-0.067
		c0-0.025,0.01-0.045,0.026-0.064c0.02-0.017,0.041-0.026,0.066-0.026C65.208,54.752,65.23,54.762,65.247,54.779"/>
</g>
</svg>
