<?xml version="1.0" encoding="utf-8"?>
<!-- Generator: Adobe Illustrator 16.0.0, SVG Export Plug-In . SVG Version: 6.00 Build 0)  -->
<!DOCTYPE svg PUBLIC "-//W3C//DTD SVG 1.1//EN" "http://www.w3.org/Graphics/SVG/1.1/DTD/svg11.dtd">
<svg version="1.1" id="Layer_1" xmlns="http://www.w3.org/2000/svg" xmlns:xlink="http://www.w3.org/1999/xlink" x="0px" y="0px"
	 width="120px" height="70.887px" viewBox="0 0 120 70.887" enable-background="new 0 0 120 70.887" xml:space="preserve">
<g>
	<path fill="#00A9A2" d="M78.445,0.029v28.83c1.907-0.306,3.798-0.616,5.665-0.932V0.029H78.445z"/>
	<path fill="#00CFB5" d="M78.445,61.047h5.665V28.824c-1.867,0.314-3.758,0.625-5.665,0.931V61.047z"/>
	<path fill="#00CFB5" d="M113.544,23.237c0.63,2.392,0.95,4.526,0.95,7.301c0,7.24-2.107,13.129-6.321,17.672
		c-4.215,4.54-9.845,6.961-16.898,7.248V27.575c-1.785,0.32-3.597,0.639-5.429,0.954v32.518h1.269c9.903,0,17.862-2.806,23.872-8.42
		C116.993,47.015,120,39.653,120,30.539c0-3.184-0.367-5.695-1.086-8.442C117.216,22.463,115.422,22.846,113.544,23.237"/>
	<path fill="#00A9A2" d="M91.274,5.655c6.896,0.106,12.488,2.471,16.781,7.093c2.646,2.849,4.472,5.75,5.488,9.595
		c1.878-0.394,3.672-0.776,5.37-1.144c-1.359-5.207-4.005-9.191-7.948-12.829c-6.022-5.561-14.129-8.341-24.327-8.341h-0.793v27.602
		c0,0,3.644-0.632,5.429-0.952V5.655z"/>
	<path fill="#00CFB5" d="M0,33.065v27.625h5.427V36.562h27.499v-1.715C20.318,35.443,8.809,35.05,0,33.065"/>
	<path fill="#00CFB5" d="M43.328,41.11c0,3.275,0.257,5.791,0.772,7.548c0.515,1.757,1.366,3.387,2.556,4.894
		c0.243,0.31,0.498,0.602,0.755,0.89h11.025c-2.74-0.268-4.951-1.436-6.63-3.507c-1.928-2.376-2.893-5.678-2.893-9.904v-7.378
		c-1.871,0.183-3.735,0.354-5.586,0.506v5.762V41.11z"/>
	<path fill="#00A9A2" d="M48.914,0.029h-5.586v33.234c1.851-0.154,3.715-0.323,5.586-0.512V0.029z"/>
	<path fill="#00A9A2" d="M71.138,0l-0.318,30.029c1.877-0.274,3.743-0.558,5.596-0.849l0.31-29.121L71.138,0z"/>
	<path fill="#00CFB5" d="M70.693,42.267c-0.044,4.174-1.048,7.392-3.012,9.658c-1.967,2.266-4.69,3.377-8.179,3.341
		c-0.431-0.004-18.476-0.114-18.476-0.114l0.224-20.826c-1.908,0.147-3.8,0.274-5.67,0.38l-0.276,25.854l24.786,0.259V60.81
		c4.741-0.031,8.597-1.671,11.553-4.922c3.032-3.336,4.581-7.857,4.64-13.563l0.132-12.248c-1.852,0.289-3.718,0.573-5.597,0.849
		L70.693,42.267z"/>
	<path fill="#00A9A2" d="M5.835,25.89c0.407-2.822,1.199-5.412,2.379-7.764C11.501,11.278,18.651,4.478,34.154,5.2V0.03h-0.793
		c-0.106,0-0.207,0.005-0.313,0.005V0.03h-0.721c-7.183,0-13.225,1.521-18.132,4.551c-1.862,1.074-3.585,2.334-5.162,3.791
		c-5.698,5.26-8.697,12.162-9.004,20.697C0.01,29.554,0,30.044,0,30.539v1.629c8.809,1.985,20.319,2.38,32.926,1.782v-2.579H5.463
		C5.463,31.372,5.321,29.095,5.835,25.89"/>
	<path fill="#01A99D" d="M5.835,25.89c-0.514,3.205-0.372,5.482-0.372,5.482c0.028-0.289,0.045-0.565,0.045-0.833
		C5.508,28.923,5.621,27.374,5.835,25.89"/>
	<path fill="#00A9A2" d="M35.94,0.029l-0.36,33.78c1.871-0.105,3.762-0.235,5.67-0.379l0.356-33.401H35.94z"/>
	<path fill="#00A9A2" d="M35.462,65.3h5.188c0.056,0,0.103,0.02,0.143,0.059c0.038,0.04,0.057,0.087,0.057,0.141
		c0,0.058-0.019,0.104-0.057,0.143c-0.04,0.039-0.087,0.059-0.143,0.059h-4.99v2.194h4.99c0.056,0,0.103,0.018,0.143,0.059
		c0.038,0.039,0.057,0.086,0.057,0.144c0,0.053-0.019,0.1-0.057,0.139c-0.04,0.039-0.087,0.06-0.143,0.06h-4.99v2.195h4.99
		c0.056,0,0.103,0.017,0.143,0.058c0.038,0.039,0.057,0.085,0.057,0.139c0,0.058-0.019,0.107-0.057,0.144
		c-0.04,0.039-0.087,0.056-0.143,0.056h-5.188c-0.058,0-0.104-0.018-0.142-0.056c-0.039-0.037-0.059-0.086-0.059-0.144v-5.188
		c0-0.054,0.02-0.101,0.059-0.141C35.358,65.319,35.404,65.3,35.462,65.3"/>
	<path fill="#00A9A2" d="M41.699,65.635c-0.033-0.037-0.053-0.078-0.053-0.135c0-0.055,0.021-0.101,0.06-0.141
		c0.038-0.039,0.085-0.059,0.141-0.059c0.057,0,0.104,0.02,0.144,0.059c0.011,0.012,0.021,0.024,0.028,0.038l0.003-0.003
		l2.436,4.847l2.38-4.744c0-0.052,0.02-0.1,0.059-0.138c0.038-0.039,0.084-0.059,0.142-0.059c0.055,0,0.101,0.02,0.141,0.059
		c0.037,0.04,0.058,0.086,0.058,0.141c0,0.024-0.003,0.043-0.008,0.064l0.017,0.008l-2.608,5.193l-0.007-0.002
		c-0.011,0.026-0.024,0.046-0.045,0.064c-0.039,0.042-0.087,0.059-0.143,0.059s-0.104-0.018-0.14-0.059
		c-0.035-0.029-0.054-0.073-0.059-0.124L41.699,65.635z"/>
	<path fill="#00A9A2" d="M48.231,65.3h5.188c0.058,0,0.104,0.02,0.144,0.059c0.038,0.04,0.058,0.087,0.058,0.141
		c0,0.058-0.02,0.104-0.058,0.143c-0.039,0.039-0.086,0.059-0.144,0.059h-4.988v2.194h4.988c0.058,0,0.104,0.018,0.144,0.059
		c0.038,0.039,0.058,0.086,0.058,0.144c0,0.053-0.02,0.1-0.058,0.139c-0.039,0.039-0.086,0.06-0.144,0.06h-4.988v2.195h4.988
		c0.058,0,0.104,0.017,0.144,0.058c0.038,0.039,0.058,0.085,0.058,0.139c0,0.058-0.02,0.107-0.058,0.144
		c-0.039,0.039-0.086,0.056-0.144,0.056h-5.188c-0.055,0-0.102-0.018-0.141-0.056c-0.039-0.037-0.059-0.086-0.059-0.144v-5.188
		c0-0.054,0.02-0.101,0.059-0.141C48.13,65.319,48.177,65.3,48.231,65.3"/>
	<path fill="#00A9A2" d="M54.42,65.5c0-0.054,0.019-0.101,0.057-0.141c0.04-0.039,0.087-0.059,0.143-0.059
		c0.054,0,0.102,0.02,0.144,0.059l4.845,4.847V65.5c0-0.054,0.019-0.101,0.059-0.141c0.038-0.039,0.083-0.059,0.142-0.059
		c0.056,0,0.102,0.02,0.14,0.059c0.041,0.04,0.06,0.087,0.06,0.141v5.188c0,0.058-0.019,0.107-0.06,0.143
		c-0.038,0.039-0.084,0.057-0.14,0.057c-0.059,0-0.104-0.018-0.142-0.059c-0.008-0.006-0.014-0.013-0.023-0.019l-4.825-4.829v4.708
		c0,0.058-0.02,0.107-0.059,0.143c-0.038,0.039-0.086,0.057-0.14,0.057c-0.056,0-0.103-0.018-0.143-0.057
		c-0.038-0.036-0.057-0.085-0.057-0.143V65.5z"/>
	<path fill="#00A9A2" d="M61.003,65.701c-0.056,0-0.103-0.02-0.14-0.059c-0.04-0.039-0.059-0.085-0.059-0.143
		c0-0.055,0.019-0.101,0.059-0.141c0.037-0.039,0.084-0.059,0.14-0.059h5.19c0.056,0,0.103,0.02,0.142,0.059
		c0.036,0.041,0.058,0.086,0.058,0.141c0,0.057-0.021,0.104-0.058,0.143c-0.039,0.039-0.086,0.059-0.142,0.059h-2.396v4.987
		c0,0.057-0.018,0.106-0.057,0.143c-0.039,0.039-0.086,0.056-0.143,0.056s-0.102-0.018-0.14-0.056
		c-0.041-0.037-0.06-0.086-0.06-0.143v-4.987H61.003z"/>
	<path fill="#00A9A2" d="M72.58,65.3c0.054,0,0.104,0.02,0.142,0.059c0.037,0.04,0.058,0.087,0.058,0.141
		c0,0.058-0.021,0.104-0.058,0.143c-0.038,0.039-0.088,0.059-0.142,0.059h-3.892c-0.305,0-0.563,0.107-0.778,0.321
		c-0.214,0.214-0.321,0.472-0.321,0.778c0,0.302,0.107,0.56,0.321,0.774c0.215,0.215,0.474,0.321,0.778,0.321h2.595
		c0.41,0,0.763,0.146,1.056,0.44s0.44,0.645,0.44,1.059c0,0.411-0.147,0.765-0.44,1.054c-0.293,0.297-0.646,0.439-1.056,0.439
		h-3.895c-0.055,0-0.101-0.018-0.14-0.056c-0.038-0.037-0.057-0.086-0.057-0.144c0-0.054,0.019-0.1,0.057-0.139
		c0.039-0.041,0.085-0.058,0.14-0.058h3.895c0.303,0,0.561-0.107,0.775-0.321c0.213-0.215,0.32-0.474,0.32-0.776
		s-0.107-0.561-0.32-0.779c-0.215-0.214-0.473-0.319-0.775-0.319h-2.595c-0.413,0-0.763-0.148-1.058-0.441
		c-0.291-0.293-0.438-0.646-0.438-1.055c0-0.414,0.147-0.767,0.438-1.06c0.295-0.292,0.645-0.44,1.058-0.44H72.58z"/>
	<path fill="#00A9A2" d="M75.605,67.655c0-0.034,0.012-0.061,0.033-0.083c0.023-0.025,0.053-0.037,0.083-0.037
		c0.038,0,0.062,0.012,0.089,0.037c0.022,0.022,0.032,0.049,0.032,0.083v3.111c0,0.038-0.01,0.065-0.032,0.086
		c-0.026,0.025-0.051,0.034-0.089,0.034c-0.03,0-0.06-0.009-0.083-0.034c-0.021-0.021-0.033-0.049-0.033-0.086V67.655z"/>
	<path fill="#00A9A2" d="M76.321,67.655c0-0.034,0.013-0.061,0.037-0.083c0.021-0.025,0.049-0.037,0.083-0.037
		c0.035,0,0.063,0.012,0.087,0.035l2.909,2.909v-2.824c0-0.034,0.01-0.061,0.031-0.083c0.025-0.025,0.055-0.037,0.088-0.037
		c0.034,0,0.06,0.012,0.083,0.037c0.022,0.022,0.036,0.049,0.036,0.083v3.111c0,0.038-0.014,0.065-0.036,0.086
		c-0.023,0.025-0.049,0.034-0.083,0.034c-0.033,0-0.062-0.009-0.088-0.034c-0.002-0.002-0.007-0.007-0.013-0.012l-2.894-2.897v2.823
		c0,0.038-0.014,0.065-0.034,0.086c-0.023,0.025-0.052,0.034-0.087,0.034c-0.034,0-0.062-0.009-0.083-0.034
		c-0.024-0.021-0.037-0.049-0.037-0.086V67.655z"/>
	<path fill="#00A9A2" d="M83.386,70.648c0.036,0,0.063,0.013,0.085,0.034c0.025,0.025,0.037,0.051,0.037,0.083
		c0,0.039-0.012,0.065-0.037,0.087c-0.021,0.024-0.049,0.034-0.085,0.034h-1.557c-0.462,0-0.856-0.163-1.186-0.491
		c-0.325-0.327-0.488-0.723-0.488-1.186c0-0.463,0.163-0.856,0.488-1.184c0.329-0.328,0.724-0.492,1.186-0.492h1.557
		c0.036,0,0.063,0.013,0.085,0.037c0.025,0.022,0.037,0.048,0.037,0.083s-0.012,0.062-0.037,0.086
		c-0.021,0.022-0.049,0.034-0.085,0.034h-1.557c-0.396,0-0.735,0.14-1.014,0.418c-0.28,0.28-0.421,0.62-0.421,1.017
		c0,0.399,0.141,0.735,0.421,1.017c0.278,0.28,0.617,0.421,1.014,0.421H83.386z"/>
	<path fill="#00A9A2" d="M84.189,70.683c0.025,0.025,0.035,0.051,0.035,0.083c0,0.039-0.01,0.065-0.035,0.087
		c-0.021,0.024-0.049,0.035-0.086,0.035c-0.031,0-0.059-0.01-0.084-0.035c-0.021-0.022-0.035-0.048-0.035-0.087
		c0-0.032,0.014-0.058,0.035-0.083c0.025-0.021,0.053-0.034,0.084-0.034C84.141,70.648,84.169,70.661,84.189,70.683"/>
</g>
</svg>
