<?xml version="1.0" encoding="utf-8"?>
<!-- Generator: Adobe Illustrator 16.0.0, SVG Export Plug-In . SVG Version: 6.00 Build 0)  -->
<!DOCTYPE svg PUBLIC "-//W3C//DTD SVG 1.1//EN" "http://www.w3.org/Graphics/SVG/1.1/DTD/svg11.dtd">
<svg version="1.1" id="Layer_1" xmlns="http://www.w3.org/2000/svg" xmlns:xlink="http://www.w3.org/1999/xlink" x="0px" y="0px"
	 width="312.947px" height="159.204px" viewBox="0 0 312.947 159.204" enable-background="new 0 0 312.947 159.204"
	 xml:space="preserve">
<path fill="#00A9A2" d="M204.577,0.077v75.185c4.974-0.798,9.903-1.608,14.774-2.431V0.077H204.577z"/>
<path fill="#00CFB5" d="M204.577,159.204h14.774V75.169c-4.871,0.82-9.801,1.63-14.774,2.428V159.204z"/>
<path fill="#00CFB5" d="M312.908,76.669c-0.011-0.434-0.031-0.867-0.047-1.3c-0.02-0.545-0.037-1.09-0.064-1.635
	c-0.029-0.577-0.068-1.152-0.105-1.728c-0.025-0.386-0.049-0.772-0.077-1.157c-0.052-0.668-0.111-1.333-0.175-1.997
	c-0.026-0.277-0.051-0.554-0.079-0.83c-0.075-0.734-0.16-1.463-0.251-2.188c-0.023-0.189-0.047-0.378-0.071-0.567
	c-0.104-0.784-0.215-1.562-0.336-2.331c-0.018-0.114-0.036-0.228-0.055-0.342c-0.133-0.82-0.274-1.632-0.428-2.431
	c-0.01-0.05-0.021-0.101-0.03-0.151c-0.163-0.843-0.338-1.674-0.525-2.49l-0.543,0.119l-13.443,2.932
	c0.145,0.642,0.276,1.298,0.404,1.961c0.023,0.123,0.049,0.243,0.071,0.366c0.112,0.603,0.215,1.215,0.313,1.832
	c0.032,0.202,0.065,0.403,0.097,0.606c0.086,0.57,0.165,1.145,0.24,1.724c0.035,0.268,0.068,0.536,0.101,0.806
	c0.064,0.535,0.124,1.071,0.179,1.612c0.034,0.333,0.064,0.668,0.095,1.003c0.044,0.494,0.088,0.986,0.125,1.482
	c0.03,0.407,0.055,0.815,0.08,1.224c0.027,0.436,0.056,0.87,0.077,1.307c0.025,0.515,0.043,1.029,0.061,1.544
	c0.011,0.34,0.027,0.68,0.035,1.019c0.021,0.862,0.033,1.723,0.033,2.579c0,18.879-5.497,34.238-16.485,46.087
	c-0.692,0.746-1.4,1.47-2.123,2.172c-0.63,0.613-1.275,1.204-1.929,1.783c-0.175,0.156-0.352,0.31-0.529,0.463
	c-0.589,0.51-1.186,1.009-1.793,1.493c-0.086,0.068-0.169,0.14-0.256,0.208c-0.685,0.54-1.384,1.058-2.092,1.563
	c-0.179,0.127-0.358,0.251-0.538,0.376c-0.603,0.419-1.212,0.827-1.83,1.222c-0.14,0.089-0.276,0.182-0.417,0.27
	c-0.734,0.46-1.481,0.903-2.239,1.33c-0.175,0.099-0.353,0.193-0.529,0.29c-0.633,0.348-1.272,0.684-1.921,1.008
	c-0.181,0.091-0.36,0.184-0.542,0.272c-0.785,0.383-1.581,0.75-2.39,1.099c-0.157,0.068-0.318,0.132-0.477,0.199
	c-0.684,0.288-1.376,0.564-2.076,0.829c-0.213,0.081-0.426,0.162-0.641,0.241c-0.838,0.306-1.685,0.599-2.546,0.871
	c-0.113,0.036-0.229,0.068-0.343,0.103c-0.767,0.237-1.543,0.46-2.327,0.671c-0.237,0.064-0.476,0.127-0.715,0.189
	c-0.89,0.229-1.786,0.446-2.698,0.641c-0.626,0.134-1.267,0.244-1.903,0.362c-3.575,0.662-7.307,1.087-11.217,1.246V71.912l0,0
	c-4.655,0.835-9.38,1.665-14.156,2.488l0,0v84.804h3.308c1.695,0,3.367-0.036,5.019-0.099c1.493-0.057,2.972-0.136,4.429-0.245
	c0.026-0.002,0.052-0.005,0.077-0.007c1.418-0.106,2.816-0.241,4.2-0.396c0.472-0.053,0.934-0.121,1.402-0.179
	c0.933-0.117,1.863-0.238,2.781-0.377c0.539-0.083,1.07-0.176,1.604-0.266c0.835-0.141,1.666-0.286,2.487-0.446
	c0.549-0.106,1.093-0.22,1.636-0.335c0.797-0.169,1.587-0.347,2.37-0.534c0.534-0.128,1.067-0.257,1.597-0.393
	c0.79-0.204,1.57-0.421,2.348-0.644c0.498-0.143,0.999-0.282,1.491-0.432c0.836-0.255,1.657-0.529,2.477-0.807
	c0.415-0.141,0.835-0.272,1.245-0.418c1.19-0.424,2.365-0.869,3.521-1.34c0.054-0.022,0.108-0.044,0.161-0.066
	c1.156-0.475,2.293-0.976,3.414-1.499c0.386-0.18,0.762-0.374,1.144-0.56c0.758-0.368,1.513-0.74,2.254-1.13
	c0.438-0.231,0.869-0.473,1.302-0.711c0.673-0.371,1.342-0.747,2.001-1.136c0.443-0.262,0.881-0.531,1.318-0.801
	c0.639-0.395,1.271-0.799,1.897-1.213c0.427-0.282,0.853-0.565,1.273-0.855c0.632-0.436,1.254-0.885,1.872-1.34
	c0.394-0.289,0.79-0.575,1.178-0.872c0.666-0.51,1.318-1.038,1.968-1.57c0.321-0.263,0.649-0.518,0.967-0.787
	c0.958-0.811,1.9-1.643,2.823-2.504c15.665-14.635,23.506-33.832,23.506-57.602C312.947,78.653,312.934,77.662,312.908,76.669z"/>
<path fill="#00A9A2" d="M238.033,14.747c17.984,0.277,32.568,6.445,43.764,18.499c6.902,7.43,11.662,14.995,14.313,25.023
	c4.897-1.027,9.577-2.023,14.006-2.983c-3.547-13.579-10.445-23.968-20.729-33.456C273.681,7.329,252.54,0.077,225.944,0.077h-2.067
	v71.981c0,0,9.501-1.649,14.156-2.482V14.747z"/>
<path fill="#00CFB5" d="M0,86.23v72.045h14.153V95.349h71.714v-4.473C52.988,92.433,22.973,91.406,0,86.23"/>
<path fill="#00CFB5" d="M112.996,107.211c0,8.541,0.67,15.101,2.013,19.686c1.344,4.581,3.564,8.831,6.665,12.762
	c0.636,0.807,1.3,1.569,1.97,2.322h28.753c-7.147-0.698-12.912-3.745-17.29-9.147c-5.028-6.196-7.542-14.807-7.542-25.83V87.762
	c-4.882,0.478-9.744,0.922-14.568,1.321v15.027V107.211z"/>
<path fill="#00A9A2" d="M127.564,0.077h-14.568v86.671c4.824-0.402,9.687-0.842,14.568-1.334V0.077z"/>
<path fill="#00A9A2" d="M185.52,0l-0.829,78.311c4.895-0.714,9.76-1.454,14.591-2.214l0.81-75.944L185.52,0z"/>
<path fill="#00CFB5" d="M184.361,110.227c-0.114,10.886-2.733,19.277-7.854,25.186c-5.13,5.909-12.232,8.809-21.329,8.713
	c-1.123-0.012-48.183-0.297-48.183-0.297l0.584-54.312c-4.978,0.383-9.91,0.715-14.788,0.992l-0.722,67.423l64.638,0.676v-0.022
	c12.366-0.08,22.419-4.358,30.128-12.836c7.909-8.7,11.948-20.489,12.102-35.37l0.344-31.94c-4.829,0.753-9.695,1.493-14.597,2.214
	L184.361,110.227z"/>
<path fill="#00A9A2" d="M15.216,67.518c1.062-7.36,3.127-14.112,6.206-20.247c8.572-17.86,27.219-35.594,67.648-33.711V0.077h-2.067
	c-0.277,0-0.539,0.013-0.816,0.013V0.077h-1.879c-18.732,0-34.49,3.966-47.287,11.869c-4.856,2.801-9.352,6.087-13.461,9.884
	C8.698,35.549,0.878,53.547,0.077,75.807C0.026,77.074,0,78.353,0,79.642v4.25c22.972,5.178,52.989,6.206,85.867,4.648v-6.725
	H14.246C14.246,81.815,13.876,75.877,15.216,67.518"/>
<path fill="#00A9A2" d="M93.729,0.077L92.79,88.17c4.878-0.275,9.812-0.613,14.788-0.989l0.93-87.105H93.729z"/>
</svg>
