<?xml version="1.0" encoding="utf-8"?>
<!-- Generator: Adobe Illustrator 16.0.0, SVG Export Plug-In . SVG Version: 6.00 Build 0)  -->
<!DOCTYPE svg PUBLIC "-//W3C//DTD SVG 1.1//EN" "http://www.w3.org/Graphics/SVG/1.1/DTD/svg11.dtd">
<svg version="1.1" id="Layer_1" xmlns="http://www.w3.org/2000/svg" xmlns:xlink="http://www.w3.org/1999/xlink" x="0px" y="0px"
	 width="312.947px" height="159.205px" viewBox="0 0 312.947 159.205" enable-background="new 0 0 312.947 159.205"
	 xml:space="preserve">
<path fill="#00A9A2" d="M219.352,71.401V0.077h-14.774v73.795C209.87,73.007,214.819,72.175,219.352,71.401z"/>
<path fill="#00CFB5" d="M204.577,75.898v0.364v82.942h14.774V73.832V73.43C214.814,74.205,209.865,75.035,204.577,75.898z"/>
<path fill="#00CFB5" d="M310.386,56.093c-0.056-0.214-0.119-0.423-0.178-0.634c-3.343,0.735-8.244,1.801-14.003,3.037
	c0.011,0.037,0.023,0.071,0.033,0.108c-0.01,0.002-0.021,0.004-0.03,0.006c1.643,6.238,2.381,13.792,2.381,21.031
	c0,18.879-5.497,34.238-16.485,46.087c-10.991,11.84-25.675,18.154-44.07,18.901V70.577v-0.407
	c-3.856,0.683-8.635,1.528-14.156,2.483v0.406v86.145h3.308c25.827,0,46.582-7.319,62.257-21.96
	c15.665-14.635,23.506-33.832,23.506-57.602c0-8.126-0.83-16.466-2.621-23.536C310.346,56.102,310.366,56.098,310.386,56.093z"/>
<path fill="#00A9A2" d="M237.786,68.182l0.247-0.044V14.747c17.984,0.277,32.568,6.445,43.764,18.499
	c6.313,6.796,11.009,14.416,13.799,23.336c5.764-1.237,10.679-2.306,14.048-3.046c-3.75-12.431-10.629-22.823-20.256-31.706
	C273.681,7.329,252.54,0.077,225.944,0.077h-2.067v70.546C229.3,69.685,233.993,68.854,237.786,68.182z"/>
<path fill="#00CFB5" d="M135.106,132.834c-5.028-6.196-7.543-14.807-7.543-25.83V86.488c-4.856,0.515-9.722,0.995-14.567,1.431
	v16.191v3.101c0,8.541,0.67,15.101,2.013,19.686c1.344,4.581,3.564,8.831,6.666,12.762c0.635,0.807,1.299,1.569,1.969,2.322h28.753
	C145.249,141.283,139.484,138.236,135.106,132.834z"/>
<path fill="#00A9A2" d="M127.563,84.478V0.077h-14.567v85.835C117.842,85.475,122.707,84.994,127.563,84.478z"/>
<path fill="#00A9A2" d="M199.307,74.725l0.784-74.571L185.52,0l-0.805,77.002C189.772,76.235,194.652,75.471,199.307,74.725z"/>
<path fill="#00A9A2" d="M107.599,86.381l0.908-86.304H93.729l-0.921,87.388C97.684,87.16,102.624,86.796,107.599,86.381z"/>
<path fill="#00CFB5" d="M184.74,79.021c-0.021,0.003-0.04,0.006-0.061,0.009l-0.318,31.196c-0.114,10.886-2.733,19.277-7.854,25.186
	c-5.13,5.909-12.232,8.809-21.329,8.713c-1.123-0.012-48.183-0.297-48.183-0.297l0.575-55.438c-0.014,0.001-0.027,0.002-0.04,0.003
	c-4.961,0.413-9.887,0.775-14.75,1.077l-0.711,68.461l64.638,0.676v-0.022c12.366-0.08,22.419-4.358,30.128-12.836
	c7.909-8.7,11.948-20.489,12.102-35.37l0.337-33.28c0.003,0,0.005,0,0.008-0.001l0.004-0.345
	C194.643,77.497,189.779,78.258,184.74,79.021z"/>
<path fill="#00CFB5" d="M83.093,89.997c-11.225,0.513-21.461,0.775-30.87,0.775c-20.831,0-37.617-1.289-52.222-3.968v71.472h14.152
	V95.349h71.714v-5.486C84.939,89.91,84.015,89.955,83.093,89.997z"/>
<path fill="#00A9A2" d="M83.001,87.999c0.952-0.043,1.907-0.09,2.866-0.139v-6.045H14.246c0.074-0.753,0.118-1.474,0.118-2.173
	c0-4.215,0.294-8.254,0.852-12.124c1.062-7.36,3.127-14.112,6.207-20.247C29.994,29.411,48.64,11.677,89.07,13.56V0.077h-2.067
	c-0.277,0-0.539,0.013-0.816,0.013V0.077h-1.879c-18.732,0-34.49,3.966-47.287,11.869c-4.856,2.801-9.352,6.087-13.461,9.884
	C8.698,35.549,0.878,53.547,0.077,75.807C0.026,77.074,0,78.353,0,79.642v5.132C21.113,88.691,46.88,89.651,83.001,87.999z"/>
</svg>
